PathFileType	4	(X/Y/Z)	 s01c0403.trc
DataRate	CameraRate	NumFrames	NumMarkers	Units	OrigDataRate	OrigDataStartFrame	OrigNumFrames
200	200	4	47	mm	200	501	2000
Frame#	Time	racr			lacr			c7			jug			rlel			rdr			llel			ldr			lic			ric			lasi			rasi			rpsi			lpsi			rgt			lgt			rth1			rth2			rth3			rth4			rlfc			rsh1			rsh2			rsh3			rsh4			rlmal			rmmal			rcal			rtoe			rmt5			lth1			lth2			lth4			lth3			llfc			lsh1			lsh2			lsh3			lsh4			llmal			lmmal			lcal			ltoe			lmt5			SBIKE			LBIKE			RBIKE			
		X1	Y1	Z1	X2	Y2	Z2	X3	Y3	Z3	X4	Y4	Z4	X5	Y5	Z5	X6	Y6	Z6	X7	Y7	Z7	X8	Y8	Z8	X9	Y9	Z9	X10	Y10	Z10	X11	Y11	Z11	X12	Y12	Z12	X13	Y13	Z13	X14	Y14	Z14	X15	Y15	Z15	X16	Y16	Z16	X17	Y17	Z17	X18	Y18	Z18	X19	Y19	Z19	X20	Y20	Z20	X21	Y21	Z21	X22	Y22	Z22	X23	Y23	Z23	X24	Y24	Z24	X25	Y25	Z25	X26	Y26	Z26	X27	Y27	Z27	X28	Y28	Z28	X29	Y29	Z29	X30	Y30	Z30	X31	Y31	Z31	X32	Y32	Z32	X33	Y33	Z33	X34	Y34	Z34	X35	Y35	Z35	X36	Y36	Z36	X37	Y37	Z37	X38	Y38	Z38	X39	Y39	Z39	X40	Y40	Z40	X41	Y41	Z41	X42	Y42	Z42	X43	Y43	Z43	X44	Y44	Z44	X45	Y45	Z45	X46	Y46	Z46	X47	Y47	Z47	
501	2.5050	641.617283	1287.247620	41.802361	740.900873	1270.864942	-319.385524	685.376914	1389.327671	-134.621289	675.151676	1220.004815	-134.218707	498.335227	1025.644873	61.564764	683.807314	898.778512	-45.049599	589.831523	1100.965459	-518.737876	703.631384	899.753651	-443.242611	340.751933	1209.504658	-390.825523	296.494624	1220.220207	-64.926274	319.129556	1153.683392	-372.282417	323.987773	1172.853664	-93.254982	201.685516	1282.147828	-187.521869	196.196570	1275.473884	-290.962308	243.242136	1126.745838	-39.928880	239.488420	1083.158026	-418.796364	319.972589	1012.606696	-28.530798	378.895816	953.578794	-35.211953	436.981147	886.041402	-52.429428	420.309915	990.920200	-49.215197	482.723412	783.739191	-78.411968	423.514858	678.201600	-49.632743	391.927151	599.612503	-57.243367	350.327297	522.154381	-71.461127	435.053733	583.485240	-96.505940	286.327492	411.188837	-92.371102	327.214392	426.064953	-175.465554	236.845586	381.376299	-151.235551	504.146438	348.094790	-125.841501	396.512609	320.306787	-61.188341	280.509944	965.556644	-426.482005	337.597163	897.300072	-425.621957	378.893633	929.965865	-416.023968	383.161286	826.168926	-410.050396	413.057349	706.711739	-391.901018	310.258946	667.146220	-429.527661	243.880671	611.868574	-426.677694	176.015471	559.872281	-417.267001	279.116115	571.757393	-395.868957	75.367275	483.008596	-406.437770	101.204870	465.675570	-325.240529	18.713716	490.685380	-363.455815	179.994222	263.443813	-375.727653	97.697972	332.628500	-438.923602	-224.464127	893.092535	-252.511694	-13.269772	85.237765	-457.690830	-22.998797	80.750866	-57.691707	
502	2.5100	641.913565	1287.435532	41.720705	741.265604	1272.041526	-320.611151	685.518539	1389.998668	-135.526196	676.238949	1220.647131	-135.119468	498.130136	1025.805255	60.721463	683.754858	898.752833	-45.274758	590.549275	1101.006745	-518.957935	704.109150	899.518453	-443.639508	341.391187	1208.462650	-391.336771	297.700438	1218.383058	-65.339096	320.095964	1152.688837	-372.774568	325.543123	1171.084485	-94.163796	202.076284	1279.921686	-187.345279	196.381182	1274.279056	-291.288905	244.821292	1124.097596	-40.490802	241.099050	1082.069508	-419.271503	321.009287	1009.675432	-29.135848	379.209607	950.112860	-35.420663	436.870750	882.095534	-53.359970	421.083392	987.139447	-49.960108	482.019460	779.609848	-79.227370	423.161653	673.874513	-50.132163	391.837528	595.197621	-57.608243	350.550566	517.583515	-71.635553	434.955524	578.621907	-97.420688	286.599752	406.541343	-92.443146	327.646125	421.096672	-175.459353	237.296836	376.844206	-151.328786	504.439933	342.179289	-125.909698	396.576029	314.992183	-61.300872	283.548396	965.264567	-426.797658	341.413042	897.608344	-425.990111	382.390163	930.683791	-416.185452	387.785760	826.924295	-410.804116	418.035412	707.831691	-393.547975	314.655385	669.221525	-430.348065	247.600439	614.754689	-427.167479	179.047194	563.693067	-417.539652	282.399395	574.194282	-396.464978	77.732261	488.357446	-406.550667	103.785852	470.911393	-324.851589	20.935817	496.555201	-363.453225	179.871238	267.719996	-375.736661	99.027665	338.673672	-440.217940	-224.467352	893.101511	-252.520538	-13.269387	85.269708	-457.674604	-22.999660	80.761197	-57.707970	
503	2.5150	642.474963	1287.401924	40.865295	741.447737	1273.388766	-321.972176	685.635853	1390.692815	-136.441124	677.287635	1221.245999	-136.090496	498.030251	1025.847705	59.808330	683.733024	898.703139	-45.615402	591.327167	1100.943908	-519.186644	704.578025	899.264690	-444.037285	341.964954	1207.507925	-391.843076	299.061742	1216.457769	-65.764939	321.054210	1151.769446	-373.251998	326.932824	1169.334866	-94.870013	202.266195	1277.562454	-187.124330	196.844505	1272.538271	-291.238004	246.397037	1121.559129	-41.002456	242.771967	1081.023733	-419.792380	322.003433	1006.589072	-29.768092	379.707601	946.652316	-36.197696	436.764467	878.099483	-54.270712	421.776554	983.270013	-50.697466	481.324154	775.421388	-79.968243	422.868164	669.405459	-50.919601	391.715717	590.752738	-57.975934	350.712329	512.955408	-71.869343	434.890367	574.683214	-97.568693	286.802980	401.810280	-92.641112	328.005256	416.175119	-175.475780	237.516191	372.337046	-151.369992	504.818316	336.382479	-126.181689	396.569631	309.522767	-61.358539	286.729004	965.009118	-427.140587	345.297714	897.986704	-426.431223	385.865954	931.517234	-416.386610	392.540877	827.844999	-411.222184	423.131034	708.861835	-394.819338	319.221898	671.254452	-431.241681	251.492428	617.633642	-427.858293	182.499703	567.579238	-417.936155	285.752610	576.613147	-397.123420	80.042703	493.872877	-406.919171	106.307391	475.990712	-324.838319	23.553340	502.567392	-363.460050	179.918872	271.985329	-375.777956	99.576037	343.502638	-439.842040	-224.437837	893.103279	-252.543026	-13.256003	85.252097	-457.674331	-22.989427	80.761820	-57.713654	
504	2.5200	642.949835	1287.465879	40.335337	741.513289	1274.868992	-323.458128	685.723981	1391.489982	-137.518757	678.310832	1222.085184	-137.226033	497.947570	1025.906124	58.948015	683.771083	898.608329	-46.091846	592.147257	1100.838131	-519.317114	705.040699	899.000124	-444.556793	342.589921	1206.610556	-392.389128	300.297299	1214.561926	-66.178798	322.113660	1150.892095	-373.711983	328.394051	1167.540468	-95.921744	202.283598	1275.090281	-186.866162	197.799583	1270.381251	-291.139266	247.920536	1118.879695	-41.590022	244.557437	1080.013337	-420.348415	322.954635	1003.587225	-30.363612	380.189409	943.151764	-37.061672	436.606702	874.130891	-55.147603	422.483927	979.423797	-51.473464	480.512518	771.163732	-80.751180	422.454514	665.013420	-51.433820	391.532546	586.265723	-58.371953	350.778771	508.259015	-72.121083	434.773761	570.348699	-97.495402	286.930351	397.017139	-92.875692	328.250695	411.273151	-175.536651	237.662886	367.895864	-151.452311	504.560889	329.725008	-126.868127	396.380443	304.219015	-61.452199	289.867877	964.796046	-427.560686	349.232105	898.432202	-426.957165	389.328313	932.424951	-416.728871	397.333393	828.751706	-412.180346	428.259328	709.829259	-396.206991	323.914766	673.334005	-432.202112	255.569617	620.501148	-428.567870	185.373079	571.712341	-419.071245	289.322812	579.202553	-397.869547	82.739156	499.138349	-407.053656	109.137694	481.077823	-324.938110	26.470137	508.522453	-363.425622	180.199532	276.274774	-375.824161	100.319773	348.404883	-439.503469	-224.425605	893.136487	-252.565415	-13.248167	85.273750	-457.685867	-22.985463	80.768415	-57.709903	
